<svg width="68" height="68" viewBox="0 0 68 68" fill="none" xmlns="http://www.w3.org/2000/svg">
<path d="M34.0067 0.666656C52.4 0.666656 67.3333 15.6 67.3333 33.9933C67.3333 52.3833 52.4 67.3167 34.0067 67.3167C15.6167 67.3167 0.68335 52.3833 0.68335 33.9933C0.68335 15.6 15.6167 0.666656 34.0067 0.666656ZM31.5167 31.5H19.85C18.47 31.5 17.35 32.62 17.35 34C17.35 35.38 18.47 36.5 19.85 36.5H31.5167V48.1667C31.5167 49.5467 32.6367 50.6667 34.0167 50.6667C35.3967 50.6667 36.5167 49.5467 36.5167 48.1667V36.5H48.1833C49.5633 36.5 50.6833 35.38 50.6833 34C50.6833 32.62 49.5633 31.5 48.1833 31.5H36.5167V19.8333C36.5167 18.4533 35.3967 17.3333 34.0167 17.3333C32.6367 17.3333 31.5167 18.4533 31.5167 19.8333V31.5Z" fill="#31873F"/>
</svg>
