<svg width="20" height="20" viewBox="0 0 20 20" fill="none" xmlns="http://www.w3.org/2000/svg">
<path d="M14.6445 1.54C14.7137 2.1225 14.2478 2.5 13.6595 2.5H6.34783C5.76116 2.5 5.29283 2.12333 5.36283 1.53667C4.25533 1.77083 1.66699 2.5025 1.66699 3.63333C1.66699 3.88583 1.75283 4.21667 1.86283 4.7675C4.50866 7.22833 14.9945 7.34083 18.0928 4.97083C18.2253 4.28417 18.3337 3.90583 18.3337 3.62833C18.3337 2.5175 15.7578 1.77583 14.6445 1.54ZM17.2387 7.2875C16.5153 11.11 15.4187 16.0708 14.9812 18.36C14.082 19.4533 12.027 20 9.97033 20C7.91366 20 5.85783 19.4533 4.95949 18.36C4.51866 15.9567 3.43116 10.97 2.72283 7.18167C5.35116 8.24333 8.88783 8.34917 10.1353 8.34917C11.6112 8.34917 14.7695 8.22333 17.2387 7.2875ZM6.34783 1.65167C7.11616 1.65167 7.73866 0.751667 7.73866 0H12.2695C12.2695 0.751667 12.892 1.65167 13.6595 1.65167H6.34783Z" fill="#6F1B00"/>
</svg>
