<svg width="20" height="20" viewBox="0 0 20 20" fill="none" xmlns="http://www.w3.org/2000/svg">
<path d="M3.73431 13.0492C2.62264 16.3125 2.50098 16.5758 2.50098 16.8717C2.50098 17.3117 2.88431 17.4958 3.12514 17.4958C3.41848 17.4958 3.68181 17.3817 6.93681 16.2525L3.73431 13.0492ZM4.61764 12.165L7.82264 15.37L17.2568 5.94417C17.4193 5.78167 17.501 5.56917 17.501 5.355C17.501 5.1425 17.4193 4.93 17.2568 4.76667C16.6801 4.19083 15.8051 3.31667 15.2276 2.74C15.0651 2.5775 14.8518 2.49583 14.6385 2.49583C14.4268 2.49583 14.2135 2.5775 14.0501 2.74L4.61764 12.165Z" fill="#6F4700"/>
</svg>
