<svg width="20" height="20" viewBox="0 0 20 20" fill="none" xmlns="http://www.w3.org/2000/svg">
<path d="M4.16667 18.3333H0V8.33333H4.16667V18.3333ZM18.8458 11.3233C18.1317 11.2275 18.3642 10.7117 18.8717 10.555C19.3058 10.4217 20 10.1383 20 9.29667C20 8.73667 19.5833 7.995 18.1075 8.055C17.0842 8.09667 15.0525 7.89 13.9583 7.3175C14.7133 4.27083 14.5317 0 12.5517 0C11.2233 0 10.9717 1.50583 10.5725 2.89083C9.555 6.42583 7.8125 7.905 5.83333 8.62833V17.6933C9.485 18.2775 11.1208 20 14.5875 20C17.2525 20 18.6308 18.5542 18.6308 17.7783C18.6308 17.4992 18.4042 17.3008 17.8308 17.2567C17.155 17.205 17.2192 16.58 17.8567 16.4625C18.9133 16.2675 19.3783 15.7008 19.3783 15.1767C19.3783 14.7358 19.0483 14.325 18.4633 14.1925C17.7658 14.035 17.91 13.5617 18.4892 13.5158C19.4333 13.4408 19.8958 12.8792 19.8958 12.3408C19.8958 11.87 19.5425 11.4167 18.8458 11.3233Z" fill="#325A80"/>
</svg>
