<svg width="20" height="24" viewBox="0 0 20 24" fill="none" xmlns="http://www.w3.org/2000/svg">
<path d="M4.16667 19.3333H0V9.33333H4.16667V19.3333ZM18.8458 12.3233C18.1317 12.2275 18.3642 11.7117 18.8717 11.555C19.3058 11.4217 20 11.1383 20 10.2967C20 9.73667 19.5833 8.995 18.1075 9.055C17.0842 9.09667 15.0525 8.89 13.9583 8.3175C14.7133 5.27083 14.5317 1 12.5517 1C11.2233 1 10.9717 2.50583 10.5725 3.89083C9.555 7.42583 7.8125 8.905 5.83333 9.62833V18.6933C9.485 19.2775 11.1208 21 14.5875 21C17.2525 21 18.6308 19.5542 18.6308 18.7783C18.6308 18.4992 18.4042 18.3008 17.8308 18.2567C17.155 18.205 17.2192 17.58 17.8567 17.4625C18.9133 17.2675 19.3783 16.7008 19.3783 16.1767C19.3783 15.7358 19.0483 15.325 18.4633 15.1925C17.7658 15.035 17.91 14.5617 18.4892 14.5158C19.4333 14.4408 19.8958 13.8792 19.8958 13.3408C19.8958 12.87 19.5425 12.4167 18.8458 12.3233Z" fill="white"/>
</svg>
