<svg width="24" height="24" viewBox="0 0 24 24" fill="none" xmlns="http://www.w3.org/2000/svg">
<g clip-path="url(#clip0_10_7)">
<path d="M23.832 19.641L17.011 12.82C19.845 6.942 15.561 0 8.946 0C4.014 0 0 4.014 0 8.947C0 15.455 6.739 19.745 12.601 17.113L19.48 23.992C21.437 24.156 24 21.666 23.832 19.641ZM8.946 14.92C5.653 14.92 2.973 12.24 2.973 8.947C2.973 5.654 5.653 2.974 8.946 2.974C12.24 2.974 14.92 5.654 14.92 8.947C14.92 12.24 12.24 14.92 8.946 14.92Z" fill="#FAFAFA"/>
</g>
<defs>
<clipPath id="clip0_10_7">
<rect width="24" height="24" rx="4" fill="white"/>
</clipPath>
</defs>
</svg>
