<svg width="20" height="20" viewBox="0 0 20 20" fill="none" xmlns="http://www.w3.org/2000/svg">
<g clip-path="url(#clip0_58_3)">
<path d="M4.16667 5.83333C6.4675 5.83333 8.33333 7.69917 8.33333 10C8.33333 12.3008 6.4675 14.1667 4.16667 14.1667C1.865 14.1667 0 12.3008 0 10C0 7.69917 1.865 5.83333 4.16667 5.83333ZM16.6667 2.5C16.6667 1.11917 15.5467 0 14.1667 0C12.7858 0 11.6667 1.11917 11.6667 2.5C11.6667 2.76 11.7175 3.005 11.79 3.24L8.2825 5.87083C8.67667 6.26333 9.01333 6.71167 9.28333 7.20333L12.7808 4.58C13.1783 4.84417 13.6542 5 14.1667 5C15.5467 5 16.6667 3.88083 16.6667 2.5ZM11.79 16.76C11.7175 16.995 11.6667 17.24 11.6667 17.5C11.6667 18.8808 12.7858 20 14.1667 20C15.5467 20 16.6667 18.8808 16.6667 17.5C16.6667 16.1192 15.5467 15 14.1667 15C13.6542 15 13.1783 15.1558 12.7817 15.42L9.28417 12.7967C9.01417 13.2883 8.67667 13.7367 8.28333 14.1292L11.79 16.76ZM17.5 12.5517C18.88 12.5517 20 11.4325 20 10.0517C20 8.67083 18.88 7.55167 17.5 7.55167C16.4325 7.55167 15.5275 8.22417 15.1692 9.16667H9.93333C9.9725 9.44 10 9.71667 10 10C10 10.2833 9.9725 10.56 9.93333 10.8333H15.1367C15.4658 11.8292 16.3933 12.5517 17.5 12.5517Z" fill="black"/>
</g>
<defs>
<clipPath id="clip0_58_3">
<rect width="20" height="20" fill="white"/>
</clipPath>
</defs>
</svg>
