<svg width="20" height="20" viewBox="0 0 20 20" fill="none" xmlns="http://www.w3.org/2000/svg">
<g clip-path="url(#clip0_10_120)">
<path d="M10 0C4.4775 0 0 4.4775 0 10C0 15.5225 4.4775 20 10 20C15.5225 20 20 15.5225 20 10C20 4.4775 15.5225 0 10 0ZM10 18.3333C7.3975 18.3333 5.07167 17.1325 3.5425 15.2583C3.75833 14.7683 4.195 14.4292 5.09833 14.22C6.96833 13.7883 8.81417 13.4025 7.92583 11.7658C5.29667 6.91583 7.17667 4.16667 10 4.16667C12.7683 4.16667 14.695 6.81417 12.0742 11.7658C11.2117 13.3925 12.9908 13.7792 14.9017 14.22C15.8033 14.4283 16.2433 14.7658 16.4608 15.2542C14.9308 17.1317 12.6042 18.3333 10 18.3333Z" fill="black"/>
</g>
<defs>
<clipPath id="clip0_10_120">
<rect width="20" height="20" rx="4" fill="white"/>
</clipPath>
</defs>
</svg>
